<svg id="Layer_1" data-name="Layer 1" xmlns="http://www.w3.org/2000/svg" viewBox="0 0 400.04 51.77"><defs><style>.cls-1{fill:#282828;}</style></defs><path class="cls-1" d="M18.07,42.1V35.82H14.23v6.33H1.49V8.4H14.23V26.11h3.84V8.36H30.85V42.1Z"/><path class="cls-1" d="M33.43,42.1V8.36H55.11V18.79H45.58V31.67h9.53V42.1ZM52.85,27.62a3.44,3.44,0,0,1-4.79,0,3.19,3.19,0,0,1-1-2.37,3.39,3.39,0,0,1,6.77,0A3.19,3.19,0,0,1,52.85,27.62Z"/><path class="cls-1" d="M88.06,37.47a17.59,17.59,0,0,1-24.91,0A17,17,0,0,1,58,25a16.94,16.94,0,0,1,5.19-12.44,17.59,17.59,0,0,1,24.91,0A17,17,0,0,1,93.23,25,17,17,0,0,1,88.06,37.47ZM83.93,15.63A4,4,0,0,0,81,14.41a4.1,4.1,0,0,0-3,1.22,4,4,0,0,0-1.24,2.94,4.25,4.25,0,0,0,4.2,4.2,4,4,0,0,0,2.94-1.25,4.06,4.06,0,0,0,1.22-2.95A4,4,0,0,0,83.93,15.63Z"/><path class="cls-1" d="M127.45,48.09a9,9,0,0,1-6.57,2.73,13.56,13.56,0,0,1-3.73-.5,6.33,6.33,0,0,1-3-1.81l0-5a3.79,3.79,0,0,0,2.44-1.06,3.2,3.2,0,0,0,1-2.37V8.36h12.61V41.52A9,9,0,0,1,127.45,48.09Z"/><path class="cls-1" d="M157.29,38.1a14.07,14.07,0,0,1-20.19,0,14.11,14.11,0,0,1-4.2-10.27V8.67h12.28V18a3.69,3.69,0,0,0,1.09,2.66,3.46,3.46,0,0,0,2.62,1.13,3.36,3.36,0,0,0,2.55-1.13A3.74,3.74,0,0,0,152.5,18V8.67h9V27.83A14.11,14.11,0,0,1,157.29,38.1Z"/><path class="cls-1" d="M175.81,35.69V42.1H164.25V8.36l15.49,6.86V8.31H191.3V42.05Z"/><path class="cls-1" d="M213.93,42.3a17.39,17.39,0,0,1-15.08-4.69,16,16,0,0,1-5.06-11.91,16,16,0,0,1,5.06-11.92A16.81,16.81,0,0,1,211,8.85a19,19,0,0,1,2.93.23,13.63,13.63,0,0,1,2.76.72v4.65a1,1,0,0,1-.25,0l-.2,0h-.45a6.91,6.91,0,0,0-3.78,1,2.86,2.86,0,0,0-1.55,2.4,2.47,2.47,0,0,0,.67,1.67,5.13,5.13,0,0,0,1.81,1.26V17.89h3.75V41.6A16.89,16.89,0,0,1,213.93,42.3Z"/><path class="cls-1" d="M258.47,42.1V35.82h-3.84v6.33H241.9V8.4h12.73V26.11h3.84V8.36h12.79V42.1Z"/><path class="cls-1" d="M297,29V42.1H284.18V30.22L273.25,11.93l10-6,7,11.65,7-11.7,10,6Z"/><path class="cls-1" d="M308.7,42.1V8.36h21.69V18.79h-9.53V31.67h9.53V42.1Zm19.43-14.48a3.44,3.44,0,0,1-4.79,0,3.19,3.19,0,0,1-1-2.37,3.39,3.39,0,0,1,6.77,0A3.19,3.19,0,0,1,328.13,27.62Z"/><path class="cls-1" d="M363.34,37.47a17.59,17.59,0,0,1-24.91,0A16.92,16.92,0,0,1,333.23,25a16.91,16.91,0,0,1,5.2-12.44,17.59,17.59,0,0,1,24.91,0A17,17,0,0,1,368.51,25,17,17,0,0,1,363.34,37.47Zm-4.13-21.84a4,4,0,0,0-2.94-1.22,4.09,4.09,0,0,0-3,1.22,4,4,0,0,0-1.24,2.94,4.17,4.17,0,0,0,7.14,2.95,4.06,4.06,0,0,0,1.22-2.95A4,4,0,0,0,359.21,15.63Z"/><path class="cls-1" d="M383.19,35.69V42.1H371.63V8.36l15.49,6.86V8.31h11.57V42.05Z"/></svg>